<?xml version="1.0" ?><svg viewBox="0 0 64 64" xmlns="http://www.w3.org/2000/svg"><title/><g data-name="Layer 2" id="Layer_2"><circle cx="32" cy="32" r="27.758" style="fill:#f9bf44"/></g><g data-name="Layer 1" id="Layer_1"><path d="M27.29,28.81a.328.328,0,0,0-.07-.16.8.8,0,0,0-.23-.29.783.783,0,0,0-.15-.1.994.994,0,0,0-.49-.13.746.746,0,0,0-.26.04.037.037,0,0,0-.03.01.5.5,0,0,0-.2.08.814.814,0,0,0-.28.24.708.708,0,0,0-.1.14.468.468,0,0,0-.05.1,4.846,4.846,0,0,1-8.63.02.108.108,0,0,0-.03-.07,1,1,0,0,0-.16-.24.828.828,0,0,0-.21-.17.767.767,0,0,0-.23-.1.037.037,0,0,0-.03-.01.784.784,0,0,0-.26-.04.994.994,0,0,0-.49.13.709.709,0,0,0-.14.1,1,1,0,0,0-.2.21.828.828,0,0,0-.07.13.493.493,0,0,0-.06.17.746.746,0,0,0-.04.26V53.35a1.015,1.015,0,0,0,.29.71c.05.04.1.09.16.13a27.652,27.652,0,0,0,10.82,4.95,1.237,1.237,0,0,0,.2.02,1,1,0,0,0,1-1V29.1a.537.537,0,0,0-.04-.22A.144.144,0,0,0,27.29,28.81Z" style="fill:#58b3de"/><path d="M49.3,28.87a.492.492,0,0,0-.06-.17.823.823,0,0,0-.07-.13.951.951,0,0,0-.19-.21.56.56,0,0,0-.15-.1.994.994,0,0,0-.49-.13.784.784,0,0,0-.26.04.037.037,0,0,0-.03.01.672.672,0,0,0-.23.1.685.685,0,0,0-.21.17.559.559,0,0,0-.14.2.408.408,0,0,0-.05.09,4.838,4.838,0,0,1-8.63,0,.462.462,0,0,0-.05-.1.707.707,0,0,0-.1-.14.814.814,0,0,0-.28-.24.5.5,0,0,0-.2-.08.037.037,0,0,0-.03-.01.746.746,0,0,0-.26-.04.994.994,0,0,0-.49.13.711.711,0,0,0-.14.1.814.814,0,0,0-.24.28.5.5,0,0,0-.08.2.037.037,0,0,0-.01.03.746.746,0,0,0-.04.26V58.11a1,1,0,0,0,1,1,1.106,1.106,0,0,0,.19-.02h.02a27.455,27.455,0,0,0,10.79-5.07.7.7,0,0,0,.19-.15,1,1,0,0,0,.28-.69V29.13A.745.745,0,0,0,49.3,28.87Z" style="fill:#58b3de"/><path d="M21.111,33.388a6.787,6.787,0,0,1-6.132-3.819,1,1,0,1,1,1.795-.882,4.834,4.834,0,0,0,8.675,0,1,1,0,0,1,1.795.882A6.787,6.787,0,0,1,21.111,33.388Z" style="fill:#382a12"/><path d="M19.434,25.792a6.791,6.791,0,0,1-4.426-1.646,1,1,0,1,1,1.3-1.52A4.833,4.833,0,0,0,24.276,19.2a1,1,0,1,1,2,.1,6.785,6.785,0,0,1-4.122,5.933A6.864,6.864,0,0,1,19.434,25.792Z" style="fill:#382a12"/><path d="M44.566,25.792a6.864,6.864,0,0,1-2.718-.564,6.785,6.785,0,0,1-4.122-5.933,1,1,0,1,1,2-.1,4.833,4.833,0,0,0,7.967,3.431,1,1,0,1,1,1.3,1.52A6.791,6.791,0,0,1,44.566,25.792Z" style="fill:#382a12"/><path d="M43.106,33.388a6.787,6.787,0,0,1-6.133-3.819,1,1,0,1,1,1.795-.882,4.834,4.834,0,0,0,8.675,0,1,1,0,1,1,1.795.882A6.787,6.787,0,0,1,43.106,33.388Z" style="fill:#382a12"/><path d="M37.869,38.48a1,1,0,0,1-.509-.14,10.82,10.82,0,0,0-10.523-.117,1,1,0,1,1-.974-1.747,12.849,12.849,0,0,1,12.517.143,1,1,0,0,1-.511,1.86Z" style="fill:#382a12"/></g></svg>